<?xml version="1.0" encoding="utf-8"?>
<!-- Generator: Adobe Illustrator 16.0.0, SVG Export Plug-In . SVG Version: 6.00 Build 0)  -->
<!DOCTYPE svg PUBLIC "-//W3C//DTD SVG 1.1//EN" "http://www.w3.org/Graphics/SVG/1.1/DTD/svg11.dtd">
<svg version="1.1" xmlns="http://www.w3.org/2000/svg" xmlns:xlink="http://www.w3.org/1999/xlink" x="0px" y="0px"
	 width="1599.28px" height="293.352px" viewBox="0 0 1599.28 293.352" enable-background="new 0 0 1599.28 293.352"
	 xml:space="preserve">
<g id="Layer_1">
</g>
<g id="Layer_2">
</g>
<g id="Layer_3">
</g>
<g id="Layer_4">
</g>
<g id="Layer_5">
</g>
<g id="Layer_6">
</g>
<g id="Layer_7">
</g>
<g id="Layer_8">
</g>
<g id="Layer_9">
</g>
<g id="Layer_10">
</g>
<g id="Layer_11">
	<g>
	</g>
	<g>
		<defs>
			<rect id="SVGID_1_" width="1599.28" height="293.352"/>
		</defs>
		<clipPath id="SVGID_2_">
			<use xlink:href="#SVGID_1_"  overflow="visible"/>
		</clipPath>
		<path clip-path="url(#SVGID_2_)" fill="#FFFFFF" d="M157.12,78.19c-13.123-11.485-28.797-17.31-46.579-17.31
			c-20.94,0-37.697,5.859-49.795,17.398C48.6,89.859,42.45,105.916,42.45,126.019v125.147l27.112,0.33v-68.684
			c4.801,3.204,9.672,6.362,14.525,9.4l0.253,0.143c7.451,3.638,15.656,5.482,24.378,5.482c1.809,0,3.817-0.087,5.943-0.265
			c2.18-0.182,4.142-0.459,5.749-0.812c17.193-3.216,31.548-11.162,42.674-23.607c11.175-12.506,16.84-27.413,16.84-44.312v-2.857
			c0-1.161-0.094-2.362-0.271-3.387C177.853,104.638,170.278,89.7,157.12,78.19 M82.792,99.148
			c7.864-7.681,16.864-11.415,27.484-11.415c11.138,0,20.468,3.905,28.508,11.915c8.041,8.011,11.951,17.394,11.951,28.673
			c0,11.463-3.788,20.893-11.574,28.821c-7.775,7.916-16.97,11.763-28.102,11.763c-11.656,0-21.021-3.763-28.621-11.509
			c-7.509-7.64-11.314-18.125-11.314-31.154C71.124,115.675,74.939,106.812,82.792,99.148"/>
	</g>
	<g>
		<defs>
			<rect id="SVGID_3_" width="1599.28" height="293.352"/>
		</defs>
		<clipPath id="SVGID_4_">
			<use xlink:href="#SVGID_3_"  overflow="visible"/>
		</clipPath>
		<path clip-path="url(#SVGID_4_)" fill="#FFFFFF" d="M259.885,178.948c-0.749-1.302-1.084-2.127-1.231-2.622
			c12.646-2.868,23.167-8.062,31.247-15.426c11.309-10.214,17.045-24.113,17.045-41.331c0-15.732-5.507-29.593-16.357-41.172
			c-10.914-11.621-24.467-17.511-40.276-17.511c-16.858,0-30.976,5.937-41.962,17.651c-10.943,11.663-16.492,26.883-16.492,45.225
			v127.698h26.07v-71.995c0-2.273,0.159-4.347,0.483-6.166c0.088-0.513,0.176-0.854,0.259-1.084c0.69,0.006,1.378,0.284,2.062,0.807
			c0.164,0.13,1.16,1.048,4.742,6.285l54.719,72.172l31.895-0.512l-47.239-64.604C262.653,183.353,260.974,180.862,259.885,178.948
			 M279.835,118.038c0,8.971-2.638,16.527-8.057,23.107c-5.29,6.419-11.845,9.54-20.039,9.54c-9.354,0-16.776-2.891-22.678-8.823
			c-5.919-5.937-8.787-13.128-8.787-22.005c0-8.717,2.974-16.103,9.094-22.57c6.084-6.426,13.235-9.554,21.853-9.554
			c8.075,0,14.708,2.945,20.268,9C277.103,102.864,279.835,109.827,279.835,118.038"/>
	</g>
	<g>
		<defs>
			<rect id="SVGID_5_" width="1599.28" height="293.352"/>
		</defs>
		<clipPath id="SVGID_6_">
			<use xlink:href="#SVGID_5_"  overflow="visible"/>
		</clipPath>
		<path clip-path="url(#SVGID_6_)" fill="#FFFFFF" d="M408.564,62.706c-26.482,0-49.419,9.331-68.167,27.725
			c-18.771,18.412-28.291,41.013-28.291,67.171c0,26.318,9.418,49.17,27.997,67.918c18.577,18.766,41.177,28.279,67.164,28.279
			c26.142,0,48.859-9.372,67.525-27.866c18.684-18.496,28.15-41.049,28.15-67.029c0-26.13-9.284-48.93-27.589-67.772
			C457.021,72.271,434.551,62.706,408.564,62.706 M408.434,226.947c-18.977,0-35.435-6.739-48.911-20.026
			c-13.471-13.283-20.304-29.61-20.304-48.542c0-19.095,6.833-35.511,20.304-48.788C373,96.292,389.462,89.559,408.434,89.559
			c18.795,0,35.117,6.774,48.511,20.15c13.4,13.371,20.186,29.746,20.186,48.67c0,18.937-6.75,35.271-20.056,48.554
			C443.77,220.208,427.406,226.947,408.434,226.947"/>
	</g>
	<g>
		<defs>
			<rect id="SVGID_7_" width="1599.28" height="293.352"/>
		</defs>
		<clipPath id="SVGID_8_">
			<use xlink:href="#SVGID_7_"  overflow="visible"/>
		</clipPath>
		<path clip-path="url(#SVGID_8_)" fill="#FFFFFF" d="M617.293,62.223c-0.212,0.36-0.854,1.438-21.428,41.543
			c-6.362,12.382-11.051,20.975-13.925,25.546c-3.688,5.79-5.507,7.021-6.002,7.268c-0.606-0.3-2.887-1.961-7.757-10.778
			c-5.678-10.148-16.068-31.459-30.876-63.324l-0.742-1.59h-33.645l2.121,4.034c7.54,14.377,15.338,29.08,23.166,43.664
			c9.29,17.7,16.44,32.25,21.258,43.239c6.068,13.789,9.136,23.561,9.136,29.033v70.339h31.802v-70.074
			c0-3.746,1.85-12.082,10.672-30.535c5.661-11.998,13.512-26.895,23.331-44.265c12.958-22.954,20.686-36.896,22.966-41.449
			l2.003-3.987h-31.276L617.293,62.223z"/>
	</g>
	<g>
		<defs>
			<rect id="SVGID_9_" width="1599.28" height="293.352"/>
		</defs>
		<clipPath id="SVGID_10_">
			<use xlink:href="#SVGID_9_"  overflow="visible"/>
		</clipPath>
		<path clip-path="url(#SVGID_10_)" fill="#FFFFFF" d="M682.715,221.835c-0.206-0.054-0.377-0.107-0.513-0.16l-0.44-7.067v-47.635
			c0-1.851,0.329-3.182,0.953-3.853c0.465-0.506,1.178-1.131,2.027-1.255c0.395-0.076,1.424-0.206,3.892-0.206h51.951v-27.896
			h-53.511c-1.425,0-3.292-0.206-4.118-1.219c-0.359-0.437-1.194-1.95-1.194-6.491V91.262c0-1.378,0.241-2.427,0.57-2.852
			c0.035-0.023,0.996-0.677,5.301-0.677h56.333V60.887h-90.619v190.834h92.705v-29.458h-57.641
			C685.036,222.263,683.458,222.027,682.715,221.835"/>
	</g>
	<g>
		<defs>
			<rect id="SVGID_11_" width="1599.28" height="293.352"/>
		</defs>
		<clipPath id="SVGID_12_">
			<use xlink:href="#SVGID_11_"  overflow="visible"/>
		</clipPath>
		<path clip-path="url(#SVGID_12_)" fill="#FFFFFF" d="M849.753,61.922c-26.141,0-48.895,9.33-67.655,27.724
			c-18.766,18.419-28.284,40.926-28.284,66.919c0,26.488,9.465,49.471,28.131,68.314c18.672,18.848,41.573,28.402,68.067,28.402
			c10.685,0,21.427-1.984,31.943-5.902l1.79-0.671v-29.009l-3.986,1.992c-4.307,2.161-9.024,3.881-14.014,5.129
			c-4.966,1.238-10.343,1.868-15.992,1.868c-18.744,0-34.987-6.903-48.264-20.515c-13.3-13.62-20.032-30.047-20.032-48.83
			c0-18.943,6.732-35.364,20.021-48.817C814.754,95.072,831,88.257,849.753,88.257c10.644,0,20.838,2.274,30.317,6.762l3.94,1.861
			V67.348l-1.932-0.613C871.965,63.548,861.093,61.922,849.753,61.922"/>
	</g>
	<g>
		<defs>
			<rect id="SVGID_13_" width="1599.28" height="293.352"/>
		</defs>
		<clipPath id="SVGID_14_">
			<use xlink:href="#SVGID_13_"  overflow="visible"/>
		</clipPath>
		<path clip-path="url(#SVGID_14_)" fill="#FFFFFF" d="M990.311,61.922c-26.141,0-48.894,9.33-67.655,27.724
			c-18.771,18.419-28.29,40.926-28.29,66.919c0,26.488,9.472,49.471,28.131,68.314c18.678,18.848,41.578,28.402,68.073,28.402
			c10.685,0,21.423-1.984,31.937-5.902l1.791-0.671v-29.009l-3.982,1.992c-4.312,2.161-9.023,3.881-14.013,5.129
			c-4.966,1.238-10.343,1.868-15.991,1.868c-18.742,0-34.989-6.903-48.264-20.515c-13.301-13.62-20.039-30.047-20.039-48.83
			c0-18.943,6.738-35.364,20.026-48.817c13.278-13.453,29.522-20.268,48.277-20.268c10.644,0,20.839,2.274,30.315,6.762l3.935,1.861
			V67.348l-1.926-0.613C1012.521,63.548,1001.642,61.922,990.311,61.922"/>
	</g>
	<g>
		<defs>
			<rect id="SVGID_15_" width="1599.28" height="293.352"/>
		</defs>
		<clipPath id="SVGID_16_">
			<use xlink:href="#SVGID_15_"  overflow="visible"/>
		</clipPath>
		<rect x="1041.171" y="59.578" clip-path="url(#SVGID_16_)" fill="#FFFFFF" width="30.765" height="191.883"/>
	</g>
	<g>
		<defs>
			<rect id="SVGID_17_" width="1599.28" height="293.352"/>
		</defs>
		<clipPath id="SVGID_18_">
			<use xlink:href="#SVGID_17_"  overflow="visible"/>
		</clipPath>
		<path clip-path="url(#SVGID_18_)" fill="#FFFFFF" d="M1216.139,60.979c-2.917-4.824-3.717-9.689-2.411-14.577
			c1.312-4.907,4.129-9,8.471-12.305c3.492-2.662,7.31-4.395,11.462-5.173c4.164-0.794,8.229-0.323,12.209,1.409
			c7.045,3.004,13.134,7.869,18.272,14.613c4.77,6.256,8.162,13.518,10.179,21.787c2.014,8.264,2.313,16.452,0.894,24.586
			c-0.348,2.544-1.301,4.405-2.869,5.602c-1.202,0.919-3.174,1.561-5.926,1.95c-1.336,0.253-2.367-0.107-3.103-1.066
			c-0.736-0.96-1.03-3.923-0.901-8.871c0.129-4.954-0.542-8.388-2.015-10.313c-2.933-3.853-5.295-6.521-7.092-8.005
			c-1.801-1.49-4.182-2.056-7.144-1.69c-9.642,1.072-15.474,1.408-17.477,1.043c-4.512-0.942-8.247-3.334-11.18-7.187
			C1216.862,61.945,1216.415,61.34,1216.139,60.979"/>
		<path clip-path="url(#SVGID_18_)" fill="#FFFFFF" d="M1181.875,62.706c-26.475,0-49.417,9.331-68.171,27.725
			c-18.766,18.412-28.278,41.013-28.278,67.171c0,26.318,9.412,49.17,27.995,67.918c18.578,18.766,41.177,28.279,67.153,28.279
			c26.148,0,48.865-9.372,67.537-27.866c18.671-18.496,28.144-41.049,28.144-67.029c0-26.136-9.284-48.93-27.59-67.772
			C1230.333,72.271,1207.869,62.706,1181.875,62.706 M1181.746,226.947c-18.984,0-35.435-6.739-48.917-20.026
			c-13.465-13.283-20.304-29.61-20.304-48.542c0-19.089,6.839-35.504,20.304-48.788c13.488-13.299,29.938-20.032,48.917-20.032
			c18.795,0,35.117,6.774,48.518,20.15c13.388,13.371,20.179,29.746,20.179,48.67c0,18.937-6.745,35.271-20.057,48.554
			C1217.086,220.208,1200.723,226.947,1181.746,226.947"/>
	</g>
	<g>
		<defs>
			<rect id="SVGID_19_" width="1599.28" height="293.352"/>
		</defs>
		<clipPath id="SVGID_20_">
			<use xlink:href="#SVGID_19_"  overflow="visible"/>
		</clipPath>
		<path clip-path="url(#SVGID_20_)" fill="#FFFFFF" d="M1399.069,61.145V165.53c0,3.329-0.171,6.597-0.503,9.725
			c-0.168,1.59-0.382,2.55-0.546,3.11c-0.482-0.254-1.26-0.747-2.421-1.697c-1.732-1.431-3.853-3.668-6.355-6.702l-98.46-113.58
			v195.335h26.077V139.901c0-3.999,1.465-4.487,2.021-4.67c1.124-0.377,2.237,0.064,3.404,1.13c0.124,0.13,0.789,0.896,4.305,5.337
			l93.983,108.814l0.824,0.96h5.307V61.145H1399.069z"/>
	</g>
	<g>
		<defs>
			<rect id="SVGID_21_" width="1599.28" height="293.352"/>
		</defs>
		<clipPath id="SVGID_22_">
			<use xlink:href="#SVGID_21_"  overflow="visible"/>
		</clipPath>
		<path clip-path="url(#SVGID_22_)" fill="#FFFFFF" d="M1557.708,187.082h-24.792c0.006,0.229,0.036,0.454,0.036,0.689
			c0,19.137-15.526,34.657-34.664,34.657c-19.144,0-34.663-15.521-34.663-34.657c0-19.144,15.519-34.664,34.663-34.664
			c6.485,0,12.546,1.784,17.736,4.896l-42.904,44.758l14.025,13.441l59.849-62.465c-0.925-1.324-1.908-2.603-2.933-3.846h0.046
			c-10.902-13.183-27.377-21.576-45.82-21.576c-32.837,0-59.461,26.618-59.461,59.456c0,32.832,26.625,59.449,59.461,59.449
			c32.838,0,59.455-26.618,59.455-59.449C1557.742,187.542,1557.708,187.312,1557.708,187.082"/>
	</g>
</g>
</svg>
