<?xml version="1.0" encoding="UTF-8"?>
<svg width="14px" height="23px" viewBox="0 0 14 23" version="1.1" xmlns="http://www.w3.org/2000/svg" xmlns:xlink="http://www.w3.org/1999/xlink">
    <!-- Generator: Sketch 3.8.1 (29687) - http://www.bohemiancoding.com/sketch -->
    <title>smartphone-call</title>
    <desc>Created with Sketch.</desc>
    <defs></defs>
    <g id="Page-1" stroke="none" stroke-width="1" fill="none" fill-rule="evenodd">
        <g id="Desktop-Landscape-Copy" transform="translate(-765.000000, -2257.000000)" fill="#4A4A4A">
            <g id="smartphone-call" transform="translate(765.000000, 2257.000000)">
                <g id="Capa_1">
                    <path d="M11.8075429,0 L1.55348571,0 C0.6992,0 -8.8817842e-16,0.698542857 -8.8817842e-16,1.55348571 L-8.8817842e-16,21.4458571 C-1.47183852e-15,22.3008 0.6992,23 1.55348571,23 L11.8075429,23 C12.6618286,23 13.3610286,22.3021143 13.3610286,21.4465143 L13.3610286,1.55348571 C13.3610286,0.698542857 12.6618286,0 11.8075429,0 L11.8075429,0 Z M5.04028571,1.11977143 L8.32074286,1.11977143 C8.42457143,1.11977143 8.50868571,1.20388571 8.50868571,1.30837143 C8.50868571,1.4122 8.42457143,1.49631429 8.32074286,1.49631429 L5.04028571,1.49631429 C4.93645714,1.49631429 4.85234286,1.4122 4.85234286,1.30837143 C4.85234286,1.20388571 4.93645714,1.11977143 5.04028571,1.11977143 L5.04028571,1.11977143 Z M6.68051429,22.2232571 C6.2514,22.2232571 5.90377143,21.8756286 5.90377143,21.4458571 C5.90377143,21.0160857 6.2514,20.6691143 6.68051429,20.6691143 C7.10962857,20.6691143 7.45725714,21.0160857 7.45725714,21.4458571 C7.45725714,21.8756286 7.10962857,22.2232571 6.68051429,22.2232571 L6.68051429,22.2232571 Z M12.2800286,20.125 L1.081,20.125 L1.081,2.46362857 L12.2800286,2.46362857 L12.2800286,20.125 L12.2800286,20.125 Z" id="Shape"></path>
                </g>
            </g>
        </g>
    </g>
</svg>