<?xml version="1.0" encoding="UTF-8"?>
<svg width="23px" height="19px" viewBox="0 0 23 19" version="1.1" xmlns="http://www.w3.org/2000/svg" xmlns:xlink="http://www.w3.org/1999/xlink">
    <!-- Generator: Sketch 3.8.1 (29687) - http://www.bohemiancoding.com/sketch -->
    <title>Fill 1</title>
    <desc>Created with Sketch.</desc>
    <defs></defs>
    <g id="Page-1" stroke="none" stroke-width="1" fill="none" fill-rule="evenodd">
        <g id="Desktop-Landscape-Copy" transform="translate(-250.000000, -2287.000000)" fill="#404041">
            <path d="M250.020832,2303.26154 C252.49864,2303.49011 254.733958,2302.87502 256.756161,2301.3493 C254.640934,2301.16141 253.227659,2300.11137 252.452939,2298.14936 C252.814728,2298.16507 253.139717,2298.19895 253.463193,2298.1877 C253.790454,2298.17631 254.1162,2298.12031 254.446308,2298.06217 C252.190302,2297.3595 250.974969,2295.85637 250.844389,2293.4868 C251.489756,2293.77131 252.139266,2293.99672 252.857437,2294.004 C250.813033,2292.30487 250.368024,2290.26512 251.47123,2287.82725 C253.997911,2290.79512 257.156081,2292.41592 261.020313,2292.68353 C260.990434,2292.38788 260.951401,2292.12254 260.938822,2291.85594 C260.871135,2290.42064 261.363468,2289.20181 262.415026,2288.22969 C263.571178,2287.16087 264.952555,2286.80863 266.48603,2287.09596 C267.371687,2287.26193 268.145254,2287.67958 268.783051,2288.32686 C268.876904,2288.42208 268.961675,2288.45059 269.099103,2288.4188 C269.963459,2288.21913 270.791738,2287.92791 271.565918,2287.49043 C271.633749,2287.45212 271.705184,2287.42012 271.775574,2287.38656 C271.78498,2287.38209 271.798388,2287.38595 271.837349,2287.38595 C271.48713,2288.43041 270.84007,2289.22899 269.941618,2289.84505 C270.812318,2289.78191 271.625928,2289.51822 272.463505,2289.1799 C272.03767,2289.81943 271.572477,2290.35825 271.042986,2290.84017 C270.817364,2291.0455 270.580352,2291.23937 270.338439,2291.42538 C270.216509,2291.51916 270.168898,2291.61874 270.175205,2291.77437 C270.229052,2293.09953 270.054862,2294.40042 269.697939,2295.67331 C269.390898,2296.7683 268.952737,2297.812 268.386699,2298.80254 C267.793593,2299.8404 267.081802,2300.78524 266.238278,2301.63032 C265.049147,2302.82168 263.674366,2303.73689 262.113463,2304.36781 C260.663318,2304.95392 259.153018,2305.25772 257.590963,2305.31124 C256.494208,2305.34883 255.404518,2305.27909 254.331514,2305.04867 C253.249032,2304.81624 252.200646,2304.47399 251.214612,2303.96089 C250.807158,2303.7489 250.404678,2303.52727 250,2303.31005 C250.00692,2303.29383 250.013876,2303.27768 250.020832,2303.26154" id="Fill-1"></path>
        </g>
    </g>
</svg>